<svg width="23" height="28" viewBox="0 0 23 28" fill="none" xmlns="http://www.w3.org/2000/svg">
<g id="fa-brands:behance-square">
<path id="Vector" d="M13.4481 10.2559V10.7559H13.9481H17.9414H18.4414V10.2559V9.25918V8.75918H17.9414H13.9481H13.4481V9.25918V10.2559ZM10.9689 13.2954C11.1112 13.1756 11.2396 13.0424 11.3506 12.8919C11.6536 12.4806 11.7894 11.9898 11.7894 11.4002C11.7894 10.2523 11.3604 9.45415 10.6191 8.97295C9.91928 8.51867 9.01221 8.39531 8.13786 8.39531H3.49272H2.99272V8.89531V19.0203V19.5203H3.49272L8.27131 19.5203L8.27425 19.5203C9.24183 19.5146 10.2232 19.2749 10.9763 18.7149C11.5599 18.2809 11.9836 17.6701 12.1559 16.8869C12.3432 17.431 12.6272 17.9154 13.0038 18.3192C13.7407 19.1094 14.7915 19.5467 16.0372 19.5467C16.9665 19.5467 17.7801 19.3316 18.4421 18.847C19.104 18.3624 19.5649 17.6448 19.8552 16.7299L20.0618 16.0787H19.9747L19.9911 15.6928C19.9922 15.6663 19.9939 15.6344 19.9958 15.5992C20.0007 15.5074 20.0069 15.393 20.0069 15.292C20.0069 14.1182 19.6723 13.0054 18.9972 12.1756C18.313 11.3346 17.3025 10.8158 16.0372 10.8158C13.7865 10.8158 12.2145 12.4008 11.9331 14.5082C11.724 14.0279 11.4057 13.6072 10.9689 13.2954ZM14.9 16.1717H17.2496L17.1703 16.4339C17.124 16.5869 16.9972 16.7357 16.7837 16.8538C16.5701 16.9721 16.3136 17.0332 16.0988 17.0332C15.6258 17.0332 15.3365 16.8941 15.1603 16.7027C15.0469 16.5797 14.954 16.4065 14.9 16.1717ZM9.07503 15.9512C9.07503 16.3272 8.95163 16.4977 8.8143 16.596C8.64672 16.716 8.36894 16.7906 7.97361 16.7906H6.15874V15.001H8.01837C8.4365 15.0035 8.68696 15.0949 8.82917 15.2174C8.95666 15.3271 9.07503 15.5295 9.07503 15.9512ZM7.69644 10.9563C8.05745 10.9563 8.31217 11.011 8.46433 11.1068C8.57353 11.1755 8.67981 11.2929 8.67981 11.6111C8.67981 11.9279 8.58385 12.0738 8.48891 12.1526C8.37759 12.245 8.17826 12.3188 7.85556 12.3188H6.16387V10.9563H7.69644ZM14.9715 13.9008C15.0266 13.7859 15.096 13.6915 15.1744 13.6161C15.3497 13.4475 15.6105 13.3346 15.9704 13.3346C16.3583 13.3346 16.5853 13.4471 16.7283 13.597C16.8004 13.6726 16.8651 13.7723 16.9173 13.9008H14.9715ZM22.4972 4.71875V23.2812C22.4972 24.4154 21.6048 25.3125 20.5335 25.3125H2.46616C1.39478 25.3125 0.502441 24.4154 0.502441 23.2812V4.71875C0.502441 3.5846 1.39478 2.6875 2.46616 2.6875H20.5335C21.6048 2.6875 22.4972 3.5846 22.4972 4.71875Z" stroke="#FF6384"/>
</g>
</svg>
