<svg width="159" height="41" viewBox="0 0 159 41" fill="none" xmlns="http://www.w3.org/2000/svg">
<path d="M148.037 19.5598V6.53674H158.068V8.88089H150.741V11.8576H155.57V14.1273H150.741V17.2156H158.143V19.5598H148.037Z" fill="white"/>
<path d="M135.892 19.5598V6.53674H142.026C142.908 6.53674 143.679 6.68558 144.338 6.98325C144.997 7.28092 145.513 7.70261 145.885 8.24834C146.258 8.78166 146.445 9.40181 146.445 10.1088C146.445 10.6793 146.296 11.2064 145.997 11.6901C145.711 12.1614 145.32 12.5459 144.823 12.8436C145.457 13.1413 145.96 13.5444 146.333 14.0529C146.706 14.5614 146.892 15.1381 146.892 15.7831C146.892 16.5273 146.7 17.1846 146.314 17.7551C145.941 18.3257 145.407 18.7722 144.711 19.0947C144.027 19.4047 143.232 19.5598 142.324 19.5598H135.892ZM138.595 11.8576H141.858C142.442 11.8576 142.902 11.7211 143.238 11.4483C143.586 11.163 143.76 10.7847 143.76 10.3134C143.76 9.84211 143.586 9.47002 143.238 9.19716C142.902 8.91189 142.442 8.76926 141.858 8.76926H138.595V11.8576ZM138.595 17.3272H142.119C142.741 17.3272 143.238 17.1784 143.611 16.8807C143.984 16.5707 144.17 16.1614 144.17 15.6529C144.17 15.1319 143.984 14.7226 143.611 14.425C143.238 14.1149 142.741 13.9599 142.119 13.9599H138.595V17.3272Z" fill="white"/>
<path d="M128.702 19.7458C127.521 19.7458 126.496 19.5101 125.625 19.0388C124.768 18.5675 124.103 17.8978 123.63 17.0296C123.158 16.149 122.922 15.1195 122.922 13.9413V6.53674H125.625V13.9413C125.625 14.611 125.75 15.2001 125.998 15.7087C126.259 16.2048 126.62 16.5893 127.08 16.8621C127.552 17.1226 128.099 17.2528 128.721 17.2528C129.342 17.2528 129.883 17.1226 130.343 16.8621C130.803 16.5893 131.157 16.2048 131.405 15.7087C131.666 15.2001 131.797 14.611 131.797 13.9413V6.53674H134.482V13.9413C134.482 15.1071 134.246 16.1304 133.773 17.011C133.301 17.8792 132.63 18.5551 131.76 19.0388C130.902 19.5101 129.883 19.7458 128.702 19.7458Z" fill="white"/>
<path d="M118.96 20.1922L118.084 19.1132C117.636 19.3116 117.164 19.4667 116.667 19.5783C116.17 19.7023 115.648 19.7643 115.101 19.7643C114.131 19.7643 113.23 19.5969 112.397 19.262C111.564 18.9147 110.831 18.4372 110.197 17.8295C109.575 17.2093 109.084 16.4962 108.724 15.69C108.376 14.8714 108.202 13.9908 108.202 13.0482C108.202 12.1056 108.376 11.2312 108.724 10.425C109.084 9.60639 109.575 8.89322 110.197 8.28548C110.831 7.66534 111.564 7.18783 112.397 6.85295C113.23 6.50567 114.131 6.33203 115.101 6.33203C116.07 6.33203 116.971 6.50567 117.804 6.85295C118.649 7.18783 119.383 7.66534 120.004 8.28548C120.638 8.89322 121.129 9.60639 121.477 10.425C121.825 11.2312 121.999 12.1056 121.999 13.0482C121.999 13.9784 121.819 14.8528 121.459 15.6714C121.111 16.4776 120.632 17.1845 120.023 17.7923L121.328 19.4109L118.96 20.1922ZM115.101 17.29C115.349 17.29 115.579 17.2714 115.791 17.2342C116.014 17.1845 116.226 17.1163 116.424 17.0295L115.026 15.2807L117.375 14.4993L118.345 15.69C118.631 15.3303 118.848 14.9272 118.997 14.4807C119.159 14.0342 119.24 13.5567 119.24 13.0482C119.24 12.4404 119.134 11.8823 118.923 11.3738C118.712 10.8529 118.419 10.4064 118.047 10.0343C117.674 9.6498 117.239 9.35213 116.741 9.14128C116.244 8.91803 115.697 8.8064 115.101 8.8064C114.516 8.8064 113.97 8.91803 113.46 9.14128C112.963 9.35213 112.528 9.6498 112.155 10.0343C111.794 10.4064 111.508 10.8529 111.297 11.3738C111.086 11.8823 110.98 12.4404 110.98 13.0482C110.98 13.6435 111.086 14.2017 111.297 14.7226C111.508 15.2435 111.794 15.6962 112.155 16.0807C112.528 16.4528 112.963 16.7504 113.46 16.9737C113.97 17.1845 114.516 17.29 115.101 17.29Z" fill="white"/>
<path d="M96.7965 19.5598V6.53674H103.173C104.056 6.53674 104.833 6.71038 105.504 7.05766C106.187 7.39254 106.716 7.86385 107.089 8.47159C107.474 9.07933 107.667 9.78009 107.667 10.5739C107.667 11.4049 107.437 12.1366 106.977 12.7692C106.517 13.4017 105.902 13.873 105.131 14.1831L108.021 19.5598H105L102.446 14.5738H99.5001V19.5598H96.7965ZM99.5001 12.3599H102.931C103.54 12.3599 104.025 12.1987 104.385 11.8762C104.758 11.5537 104.944 11.132 104.944 10.6111C104.944 10.0902 104.758 9.66847 104.385 9.34599C104.025 9.02352 103.54 8.86228 102.931 8.86228H99.5001V12.3599Z" fill="white"/>
<path d="M85.5249 19.5598V6.53674H95.556V8.88089H88.2285V11.8576H93.0576V14.1273H88.2285V17.2156H95.6306V19.5598H85.5249Z" fill="white"/>
<path d="M73.5797 19.5598V6.53674H80.1241C80.9818 6.53674 81.7338 6.71038 82.3802 7.05766C83.039 7.40494 83.5548 7.88866 83.9277 8.5088C84.3006 9.11654 84.4871 9.8235 84.4871 10.6297C84.4871 11.3987 84.3006 12.087 83.9277 12.6948C83.5548 13.3025 83.039 13.78 82.3802 14.1273C81.7214 14.4746 80.9694 14.6482 80.1241 14.6482H76.2832V19.5598H73.5797ZM76.2832 12.4157H79.8258C80.41 12.4157 80.8761 12.2545 81.2242 11.932C81.5847 11.6095 81.7649 11.1816 81.7649 10.6483C81.7649 10.1026 81.5847 9.66847 81.2242 9.34599C80.8761 9.02352 80.41 8.86228 79.8258 8.86228H76.2832V12.4157Z" fill="white"/>
<path d="M65.207 19.5598V14.5738L59.8744 6.53674H62.9882L66.6426 12.1925L70.3157 6.53674H73.2617L67.9105 14.5924V19.5598H65.207Z" fill="white"/>
<path d="M48.1232 19.5598V6.53674H50.8267V11.7832H56.8305V6.53674H59.534V19.5598H56.8305V14.2203H50.8267V19.5598H48.1232Z" fill="white"/>
<path d="M77.2182 34.5998C76.5583 34.5998 75.9406 34.4858 75.3652 34.2578C74.7899 34.0214 74.2864 33.6964 73.8549 33.2827C73.4318 32.869 73.0976 32.3878 72.8522 31.839C72.6153 31.2818 72.4969 30.6824 72.4969 30.0407C72.4969 29.3906 72.6153 28.7912 72.8522 28.2424C73.0976 27.6852 73.4361 27.1997 73.8676 26.7861C74.2991 26.3724 74.7983 26.0515 75.3652 25.8236C75.9406 25.5872 76.5583 25.469 77.2182 25.469C77.709 25.469 78.1828 25.5365 78.6397 25.6716C79.0966 25.8067 79.5197 25.9967 79.9089 26.2415C80.3066 26.4863 80.645 26.7818 80.9243 27.128L79.6805 28.3564C79.3589 27.9596 78.9866 27.6599 78.5636 27.4572C78.149 27.2546 77.7005 27.1533 77.2182 27.1533C76.8206 27.1533 76.4483 27.2293 76.1014 27.3813C75.7544 27.5248 75.4541 27.7274 75.2002 27.9891C74.9464 28.2424 74.7476 28.5464 74.6037 28.9009C74.4599 29.2471 74.388 29.627 74.388 30.0407C74.388 30.446 74.4599 30.8259 74.6037 31.1805C74.7476 31.5266 74.9506 31.8306 75.2129 32.0923C75.4752 32.3456 75.7798 32.544 76.1267 32.6875C76.4821 32.831 76.8671 32.9028 77.2817 32.9028C77.7471 32.9028 78.1828 32.8057 78.589 32.6115C78.9951 32.4173 79.3547 32.1387 79.6678 31.7757L80.8735 32.9661C80.5943 33.3038 80.26 33.5951 79.8708 33.8399C79.4816 34.0848 79.0586 34.2747 78.6016 34.4098C78.1532 34.5364 77.6921 34.5998 77.2182 34.5998Z" fill="white"/>
<path d="M69.8892 34.473V25.6082H71.7295V34.473H69.8892Z" fill="white"/>
<path d="M60.8904 34.473V25.6082H62.6419L67.0586 31.3323V25.6082H68.7847V34.473H67.1602L62.6292 28.5462V34.473H60.8904Z" fill="white"/>
<path d="M55.4269 34.6124C54.7669 34.6124 54.1534 34.4984 53.5865 34.2705C53.0196 34.0341 52.5204 33.7091 52.0889 33.2954C51.6658 32.8732 51.3316 32.3878 51.0863 31.839C50.8493 31.2818 50.7309 30.6824 50.7309 30.0407C50.7309 29.3991 50.8493 28.8039 51.0863 28.2551C51.3316 27.6979 51.6658 27.2124 52.0889 26.7987C52.5204 26.3766 53.0196 26.0515 53.5865 25.8236C54.1534 25.5872 54.7669 25.469 55.4269 25.469C56.0868 25.469 56.7003 25.5872 57.2672 25.8236C57.8425 26.0515 58.3418 26.3766 58.7648 26.7987C59.1963 27.2124 59.5306 27.6979 59.7675 28.2551C60.0044 28.8039 60.1228 29.3991 60.1228 30.0407C60.1228 30.6824 60.0044 31.2818 59.7675 31.839C59.5306 32.3878 59.1963 32.8732 58.7648 33.2954C58.3418 33.7091 57.8425 34.0341 57.2672 34.2705C56.7003 34.4984 56.0868 34.6124 55.4269 34.6124ZM55.4269 32.9281C55.833 32.9281 56.2053 32.8563 56.5437 32.7128C56.8822 32.5609 57.1783 32.3582 57.4322 32.1049C57.686 31.8432 57.8848 31.5351 58.0287 31.1805C58.1725 30.8259 58.2444 30.446 58.2444 30.0407C58.2444 29.627 58.1725 29.2471 58.0287 28.9009C57.8848 28.5464 57.686 28.2424 57.4322 27.9891C57.1783 27.7274 56.8822 27.5248 56.5437 27.3813C56.2053 27.2293 55.833 27.1533 55.4269 27.1533C55.0292 27.1533 54.6611 27.2293 54.3227 27.3813C53.9842 27.5248 53.6881 27.7274 53.4342 27.9891C53.1804 28.2424 52.9816 28.5464 52.8377 28.9009C52.6939 29.2471 52.622 29.6228 52.622 30.028C52.622 30.4417 52.6939 30.8259 52.8377 31.1805C52.9816 31.5351 53.1804 31.8432 53.4342 32.1049C53.6881 32.3582 53.9842 32.5609 54.3227 32.7128C54.6611 32.8563 55.0292 32.9281 55.4269 32.9281Z" fill="white"/>
<path d="M48.1232 34.473V25.6082H49.9635V34.473H48.1232Z" fill="white"/>
<path d="M19.8313 7.79718C20.2693 7.79718 20.5677 7.89853 20.6756 7.96187L29.3723 12.8834L20.6756 17.8049C20.5677 17.8682 20.2693 17.9696 19.8313 17.9696C19.3933 17.9696 19.095 17.8682 18.9871 17.8049L10.2904 12.8834L18.9871 7.96187C19.0886 7.89853 19.3933 7.79718 19.8313 7.79718ZM19.8313 5.39026C19.095 5.39026 18.3586 5.54861 17.7937 5.86531L7.43387 11.7306C6.31029 12.364 6.31029 13.3964 7.43387 14.0362L17.7937 19.9015C18.3586 20.2182 19.095 20.3765 19.825 20.3765C20.555 20.3765 21.2977 20.2182 21.8563 19.9015L32.2161 14.0362C33.3397 13.4028 33.3397 12.3703 32.2161 11.7306L21.8627 5.86531C21.3041 5.54861 20.5677 5.39026 19.8313 5.39026Z" fill="url(#paint0_linear_53_1463)"/>
<path d="M18.225 5.09882C18.663 5.09882 18.955 5.20016 19.0566 5.25717H19.0629H19.0693L25.3093 8.78521L19.0693 12.3259C18.9614 12.3893 18.663 12.4906 18.225 12.4906C17.787 12.4906 17.4886 12.3893 17.3807 12.3259L11.1344 8.79787L17.3744 5.26983C17.4886 5.20016 17.787 5.09882 18.225 5.09882ZM18.225 2.69189C17.4886 2.69189 16.7523 2.85024 16.1873 3.17328L8.28417 7.64509C7.16059 8.27849 7.16059 9.31093 8.28417 9.95066L16.1873 14.4225C16.7523 14.7392 17.4886 14.8975 18.2186 14.8975C18.9487 14.8975 19.6914 14.7392 20.25 14.4225L28.1531 9.95066C29.2767 9.31726 29.2767 8.28482 28.1531 7.64509L20.25 3.17328C19.6977 2.85658 18.9614 2.69189 18.225 2.69189Z" fill="url(#paint1_linear_53_1463)"/>
<path d="M23.9004 2.40692C24.3384 2.40692 24.6367 2.50827 24.7446 2.56527L28.528 4.7125L24.7446 6.85339C24.6367 6.91673 24.3384 7.01808 23.9004 7.01808C23.4624 7.01808 23.164 6.91673 23.0561 6.85339L19.2727 4.7125L23.0561 2.5716C23.1577 2.50826 23.456 2.40692 23.9004 2.40692ZM23.9004 0C23.164 0 22.4277 0.15835 21.8627 0.47505L16.4162 3.55971C15.2926 4.19311 15.2926 5.22555 16.4162 5.86529L21.8627 8.94995C22.4213 9.26665 23.164 9.425 23.894 9.425C24.624 9.425 25.3667 9.26665 25.9254 8.94995L31.3719 5.86529C32.4954 5.23189 32.4954 4.19944 31.3719 3.55971L25.9254 0.47505C25.3731 0.15835 24.6367 0 23.9004 0Z" fill="#00F7F6"/>
<path d="M32.5967 18.451L32.5205 28.427C32.5205 28.8577 32.0571 29.6558 31.6826 29.8712L31.6762 29.8775L31.6699 29.8838L23.0494 34.9384L23.1256 24.9687C23.1319 24.5189 23.589 23.7272 23.9699 23.5055L32.5967 18.451ZM33.9297 15.1256C33.6568 15.1256 33.3457 15.2143 33.022 15.4106L22.7511 21.4279C21.6338 22.0803 20.7261 23.6575 20.7134 24.9496L20.6245 36.8322C20.6182 37.7443 21.0625 38.2701 21.7164 38.2701C21.9893 38.2701 22.3004 38.1814 22.6241 37.985L32.895 31.9614C34.0123 31.3153 34.9264 29.7382 34.9327 28.446L35.0216 16.5634C35.0279 15.6513 34.5836 15.1256 33.9297 15.1256Z" fill="url(#paint2_linear_53_1463)"/>
<path d="M34.9139 19.6989L34.8568 26.8626V26.869V26.8753C34.8568 27.3124 34.3934 28.1041 34.0062 28.3385L27.8233 31.9615L27.8804 24.8041C27.8868 24.3544 28.3438 23.5626 28.7247 23.3409L34.9139 19.6989ZM36.247 16.3735C35.974 16.3735 35.663 16.4622 35.3392 16.6586L27.5059 21.2507C26.3887 21.9031 25.4809 23.4803 25.4682 24.7724L25.3984 33.8427C25.392 34.7548 25.8364 35.2805 26.4902 35.2805C26.7632 35.2805 27.0742 35.1919 27.398 34.9955L35.2313 30.4034C36.3485 29.7446 37.2626 28.1738 37.269 26.8816L37.3388 17.8114C37.3452 16.8993 36.9008 16.3735 36.247 16.3735Z" fill="url(#paint3_linear_53_1463)"/>
<path d="M37.237 25.8935L37.1989 30.2323C37.1926 30.682 36.7292 31.4737 36.3483 31.7017L32.603 33.8996L32.6411 29.5609C32.6475 29.1111 33.1045 28.3194 33.4854 28.0977L37.237 25.8935ZM38.5701 22.5681C38.2971 22.5681 37.9861 22.6568 37.6623 22.8531L32.2602 26.0201C31.143 26.6725 30.2352 28.2497 30.2226 29.5419L30.1718 35.7935C30.1654 36.7056 30.6098 37.2313 31.2636 37.2313C31.5366 37.2313 31.8476 37.1427 32.1714 36.9463L37.5734 33.7793C38.6907 33.1206 39.5984 31.5434 39.6111 30.2576L39.6619 24.0059C39.6682 23.0938 39.2239 22.5681 38.5701 22.5681Z" fill="#00F7F6"/>
<path d="M7.05963 18.4447L15.6801 23.4993C16.0673 23.7273 16.5244 24.519 16.5307 24.9688L16.6132 34.9448L7.99277 29.8903C7.6119 29.6686 7.15485 28.8705 7.14215 28.4081L7.05963 18.4447ZM5.72022 15.1194C5.06639 15.1194 4.62203 15.6451 4.63473 16.5572L4.7236 28.4398C4.74264 29.7383 5.65039 31.3154 6.76763 31.9678L17.0385 37.9915C17.3686 38.1815 17.6797 38.2765 17.9526 38.2765C18.6065 38.2765 19.0508 37.7508 19.0381 36.8387L18.9429 24.9498C18.9302 23.6576 18.0225 22.0868 16.9052 21.4281L6.63432 15.4044C6.30423 15.2144 5.99318 15.1194 5.72022 15.1194Z" fill="url(#paint4_linear_53_1463)"/>
<path d="M4.74215 25.4184L10.925 29.0414C11.3122 29.2694 11.7693 30.0612 11.7756 30.5109L11.8328 37.6683L5.6499 34.0453C5.26903 33.8173 4.80563 33.0255 4.79929 32.5758L4.74215 25.4184ZM3.40275 22.093C2.74891 22.093 2.30456 22.6187 2.31725 23.5308L2.38708 32.6011C2.39978 33.8996 3.31387 35.4704 4.42476 36.1228L12.2581 40.715C12.5882 40.905 12.8992 41 13.1722 41C13.826 41 14.2704 40.4743 14.2577 39.5622L14.1878 30.4919C14.1751 29.1998 13.2674 27.6289 12.1502 26.9702L4.31684 22.378C3.98675 22.188 3.67571 22.093 3.40275 22.093Z" fill="url(#paint5_linear_53_1463)"/>
<path d="M2.42517 20.2118L6.17044 22.4097C6.55766 22.6378 7.01471 23.4358 7.02106 23.8792L7.05914 28.218L3.31388 26.0201C2.92665 25.7921 2.46961 24.994 2.46326 24.5506L2.42517 20.2118ZM1.08576 16.8865C0.431925 16.8865 -0.0124307 17.4122 0.000265162 18.3243L0.0510516 24.576C0.0637474 25.8618 0.971497 27.4389 2.08873 28.0977L7.4908 31.2647C7.82089 31.4547 8.13194 31.5497 8.4049 31.5497C9.05874 31.5497 9.50309 31.024 9.49039 30.1119L9.43961 23.8602C9.42691 22.5681 8.51916 20.9972 7.40193 20.3385L1.99986 17.1715C1.66977 16.9815 1.35872 16.8865 1.08576 16.8865Z" fill="#00F7F6"/>
<defs>
<linearGradient id="paint0_linear_53_1463" x1="6.59119" y1="5.39026" x2="6.59119" y2="20.4018" gradientUnits="userSpaceOnUse">
<stop stop-color="#3023AE"/>
<stop offset="1" stop-color="#C86DD7"/>
</linearGradient>
<linearGradient id="paint1_linear_53_1463" x1="7.44148" y1="2.69189" x2="7.44148" y2="14.9165" gradientUnits="userSpaceOnUse">
<stop stop-color="#5B247A"/>
<stop offset="1" stop-color="#1BCEDF"/>
</linearGradient>
<linearGradient id="paint2_linear_53_1463" x1="20.6245" y1="15.1256" x2="20.6245" y2="38.2447" gradientUnits="userSpaceOnUse">
<stop stop-color="#3023AE"/>
<stop offset="1" stop-color="#C86DD7"/>
</linearGradient>
<linearGradient id="paint3_linear_53_1463" x1="26.0709" y1="22.7751" x2="36.6555" y2="28.8995" gradientUnits="userSpaceOnUse">
<stop stop-color="#32CDFF"/>
<stop offset="0.9" stop-color="#0B1C33"/>
</linearGradient>
<linearGradient id="paint4_linear_53_1463" x1="4.63446" y1="15.1194" x2="4.63446" y2="38.3018" gradientUnits="userSpaceOnUse">
<stop stop-color="#3023AE"/>
<stop offset="1" stop-color="#C86DD7"/>
</linearGradient>
<linearGradient id="paint5_linear_53_1463" x1="0.0836938" y1="26.8205" x2="16.4732" y2="36.3037" gradientUnits="userSpaceOnUse">
<stop offset="0.1" stop-color="#0B1C33"/>
<stop offset="1" stop-color="#38E4FF"/>
</linearGradient>
</defs>
</svg>
