<svg width="107" height="44" viewBox="0 0 107 44" fill="none" xmlns="http://www.w3.org/2000/svg">
<g clip-path="url(#clip0_14_39)">
<path d="M87.7915 35.9134V7.00057C87.7915 6.82504 87.932 6.69336 88.0941 6.69336H92.413C92.6503 6.69336 92.8449 6.89086 92.8449 7.13225V25.7308C92.8449 25.9393 92.6503 26.0929 92.4451 26.027L91.3871 25.7088C91.171 25.643 91.0954 25.3687 91.2575 25.1931L100.5 15.3617C100.683 15.1642 100.943 15.0545 101.212 15.0545H106.222C106.557 15.0545 106.719 15.4495 106.503 15.7018L99.4849 23.4705C99.3878 23.5692 99.3772 23.7228 99.4527 23.8435L106.827 35.7158C107.011 36.0121 106.805 36.3852 106.46 36.3852H101.731C101.558 36.3852 101.385 36.2972 101.299 36.1438L94.8207 25.7088C94.702 25.5223 94.8097 25.2809 95.0149 25.237L96.6563 24.8969C96.9476 24.831 97.1422 25.1931 96.937 25.4126L92.7583 29.9662C92.5207 30.2295 92.0998 29.9333 92.2618 29.6151C92.413 29.3298 92.8449 29.4286 92.8449 29.7577V35.9352C92.8449 36.1878 92.6397 36.396 92.3911 36.396H88.2453C87.9967 36.3741 87.7915 36.1656 87.7915 35.9134Z" fill="#3A1D9D"/>
<path d="M64.9126 35.9902V15.4384C64.9126 15.2189 65.0856 15.0434 65.3014 15.0434H69.2749C69.4906 15.0434 69.6633 15.2189 69.6633 15.4384V18.4888C69.6633 18.6863 69.4045 18.7521 69.318 18.5765C69.2964 18.5326 69.2855 18.4668 69.307 18.4229C69.8039 17.183 70.5811 16.2394 71.6716 15.603C72.8055 14.9227 74.1118 14.5825 75.6126 14.5825C77.1569 14.5825 78.5171 14.9227 79.7047 15.603C80.9142 16.2833 81.8536 17.2379 82.5228 18.4668C83.1923 19.6738 83.5271 21.0673 83.5271 22.6583V35.9902C83.5271 36.2094 83.3544 36.3851 83.1383 36.3851H78.8519C78.6358 36.3851 78.4631 36.2094 78.4631 35.9902V23.8653C78.4631 22.9217 78.2795 22.1097 77.9232 21.4294C77.5668 20.7491 77.0594 20.2224 76.4223 19.8603C75.8072 19.4653 75.073 19.2678 74.2198 19.2678C73.3991 19.2678 72.665 19.4653 72.0173 19.8603C71.3693 20.2224 70.8728 20.7491 70.5165 21.4294C70.1602 22.1097 69.9766 22.9217 69.9766 23.8653V35.9791C69.9766 36.1984 69.8039 36.374 69.5878 36.374H65.3014C65.0856 36.3851 64.9126 36.2094 64.9126 35.9902Z" fill="#3A1D9D"/>
<path d="M56.6637 36.001V15.4165C56.6637 15.208 56.8258 15.0435 57.031 15.0435H61.3498C61.555 15.0435 61.7167 15.208 61.7167 15.4165V36.001C61.7167 36.2095 61.555 36.3741 61.3498 36.3741H57.031C56.8258 36.3852 56.6637 36.2095 56.6637 36.001Z" fill="#3A1D9D"/>
<path d="M46.9572 35.9241V7.14323C46.9572 6.89086 47.1514 6.69336 47.3996 6.69336H51.5673C51.8159 6.69336 52.0102 6.89086 52.0102 7.14323V35.9241C52.0102 36.1767 51.8159 36.3742 51.5673 36.3742H47.3996C47.1623 36.3742 46.9572 36.1767 46.9572 35.9241Z" fill="#3A1D9D"/>
<path fill-rule="evenodd" clip-rule="evenodd" d="M54.8599 11.3608C54.8599 10.0018 55.9482 8.89307 57.2898 8.89307H58.2397C58.5325 8.89307 58.7694 9.13331 58.7694 9.42965C58.7694 9.72599 58.5325 9.96624 58.2397 9.96624H57.2898C56.5365 9.96624 55.9193 10.5912 55.9193 11.3608C55.9193 12.1304 56.5365 12.7554 57.2898 12.7554H58.2397C58.5325 12.7554 58.7694 12.9957 58.7694 13.292C58.7694 13.5883 58.5325 13.8286 58.2397 13.8286H57.2898C55.9482 13.8286 54.8599 12.7199 54.8599 11.3608Z" fill="#3A1D9D"/>
<path fill-rule="evenodd" clip-rule="evenodd" d="M59.6106 9.42965C59.6106 9.13331 59.8475 8.89307 60.1403 8.89307H61.0902C62.4318 8.89307 63.5205 10.0018 63.5205 11.3608C63.5205 12.7199 62.4318 13.8286 61.0902 13.8286H60.1403C59.8475 13.8286 59.6106 13.5883 59.6106 13.292C59.6106 12.9957 59.8475 12.7554 60.1403 12.7554H61.0902C61.8435 12.7554 62.4611 12.1304 62.4611 11.3608C62.4611 10.5912 61.8435 9.96624 61.0902 9.96624H60.1403C59.8475 9.96624 59.6106 9.72599 59.6106 9.42965Z" fill="#3A1D9D"/>
<path fill-rule="evenodd" clip-rule="evenodd" d="M57.2351 11.3608C57.2351 11.0645 57.4724 10.8242 57.7648 10.8242H60.6153C60.9077 10.8242 61.145 11.0645 61.145 11.3608C61.145 11.6572 60.9077 11.8974 60.6153 11.8974H57.7648C57.4724 11.8974 57.2351 11.6572 57.2351 11.3608Z" fill="#3A1D9D"/>
<path fill-rule="evenodd" clip-rule="evenodd" d="M5.2906 43.8136H37.8332C40.7486 43.8136 43.1238 41.4104 43.1132 38.437V5.37655C43.1132 2.40299 40.7486 0 37.8226 0H5.2906C2.36458 0 0 2.40299 0 5.37655V38.437C0 41.4104 2.36458 43.8136 5.2906 43.8136ZM21.6485 36.857C13.4858 36.857 6.83476 30.1087 6.83476 21.8025C6.83476 13.4963 13.475 6.7481 21.6485 6.7481C29.3577 6.7481 35.8468 12.8708 36.4188 20.6723C36.5378 22.2743 35.3503 23.6678 33.7737 23.7885C32.1973 23.9092 30.8261 22.7022 30.7073 21.1003C30.3618 16.3052 26.3777 12.5526 21.6377 12.5526C16.6278 12.5526 12.5465 16.7003 12.5465 21.7915C12.5465 26.8828 16.6278 31.0304 21.6377 31.0304C22.3287 31.0304 23.0197 30.9536 23.6891 30.8C25.2331 30.4379 26.7663 31.4145 27.1119 32.9835C27.4682 34.5526 26.5072 36.1108 24.9632 36.4617C23.8943 36.7253 22.7714 36.857 21.6485 36.857ZM24.2827 23.975C25.4056 22.3182 27.6407 21.9012 29.271 23.0534L37.1315 28.5835C38.7619 29.7247 39.1719 31.996 38.0383 33.6528C36.9154 35.3097 34.6804 35.7267 33.05 34.5746L25.1897 29.0444C23.5701 27.9032 23.1598 25.6319 24.2827 23.975Z" fill="#3A1D9D"/>
</g>
<defs>
<clipPath id="clip0_14_39">
<rect width="107" height="44" fill="white"/>
</clipPath>
</defs>
</svg>
